<svg xmlns="http://www.w3.org/2000/svg" xmlns:xlink="http://www.w3.org/1999/xlink" width="1201pt" height="140pt" viewBox="0 0 1201 140"><path d="M0 0h1201v140H0z" fill="#fff"/><path d="M0 0h1201v140H0z" fill="#111827"/><symbol id="a"><path d="M.187.534A.244.244 0 0 1 .188.185.244.244 0 0 1 .361.114a.26.26 0 0 1 .167.055.054.054 0 0 0 .041.01.058.058 0 0 0 .039-.021.058.058 0 0 0 .011-.043.054.054 0 0 0-.021-.037A.365.365 0 0 0 .367 0c-.1 0-.186.035-.258.105a.348.348 0 0 0 0 .508.36.36 0 0 0 .258.107.365.365 0 0 0 .231-.078.058.058 0 0 0 .021-.038.054.054 0 0 0-.012-.042A.053.053 0 0 0 .569.54a.052.052 0 0 0-.041.011.253.253 0 0 1-.166.055.25.25 0 0 1-.175-.072z"/></symbol><symbol id="b"><path d="M.099.106A.36.36 0 0 0 0 .36a.36.36 0 0 0 .099.254C.166.684.247.72.342.72A.316.316 0 0 0 .584.612a.358.358 0 0 0 .1-.253.353.353 0 0 0-.101-.252A.328.328 0 0 0 .344 0a.324.324 0 0 0-.245.106M.114.36c0-.067.022-.125.067-.174A.212.212 0 0 1 .342.114c.063 0 .117.024.161.073A.25.25 0 0 1 .57.36a.248.248 0 0 1-.066.172.209.209 0 0 1-.162.074A.212.212 0 0 1 .18.533.247.247 0 0 1 .114.36z"/></symbol><symbol id="c"><path d="M.37.321A.172.172 0 0 0 .438.176c0-.022 0-.042.004-.059A.051.051 0 0 0 .477.082.05.05 0 0 0 .469.033.057.057 0 0 0 .42.01H.419C.389.01.365.025.348.056a.283.283 0 0 0-.021.12.086.086 0 0 1-.042.072.174.174 0 0 1-.056.024H.111V.055A.052.052 0 0 0 .094.016.053.053 0 0 0 .055 0a.053.053 0 0 0-.039.016A.053.053 0 0 0 0 .055v.59C0 .66.005.673.016.684.026.694.04.7.055.7h.179C.294.7.344.679.385.637A.213.213 0 0 0 .448.48.2.2 0 0 0 .37.321M.234.383a.1.1 0 0 1 .073.03c.02.02.03.044.03.072a.1.1 0 0 1-.03.073.098.098 0 0 1-.073.031H.111V.383h.123z"/></symbol><symbol id="d"><path d="M0 .055v.59C0 .66.005.673.016.684.026.694.04.7.055.7h.118A.335.335 0 0 0 .42.597.336.336 0 0 0 .522.35.34.34 0 0 0 .42.102.336.336 0 0 0 .173 0H.055a.053.053 0 0 0-.039.016A.053.053 0 0 0 0 .055m.111.534V.111h.062c.066 0 .122.024.168.07a.23.23 0 0 1 .07.169.23.23 0 0 1-.07.169.227.227 0 0 1-.168.07H.111z"/></symbol><symbol id="e"><path d="M.055 0a.053.053 0 0 0-.039.016A.053.053 0 0 0 0 .055v.59C0 .66.005.673.016.684.026.694.04.7.055.7h.327A.052.052 0 0 0 .42.684a.055.055 0 0 0 0-.079.052.052 0 0 0-.038-.016H.111V.406h.233A.05.05 0 0 0 .382.389.052.052 0 0 0 .399.35.055.055 0 0 0 .383.311.053.053 0 0 0 .344.295H.111V.111h.271A.05.05 0 0 0 .42.094a.054.054 0 0 0 0-.078A.052.052 0 0 0 .382 0H.058L.056.001.055 0z"/></symbol><symbol id="f"><path d="M.578.289A.278.278 0 0 0 .493.085.276.276 0 0 0 .289 0a.281.281 0 0 0-.205.084A.281.281 0 0 0 0 .289v.356C0 .66.005.673.016.684.026.694.04.7.055.7A.053.053 0 0 0 .094.684.052.052 0 0 0 .111.645V.289c0-.049.017-.09.052-.126A.172.172 0 0 1 .289.111c.05 0 .091.017.126.052a.172.172 0 0 1 .052.126v.356c0 .015.005.028.016.039C.494.694.508.7.523.7A.053.053 0 0 0 .562.684.053.053 0 0 0 .578.645V.289z"/></symbol><use xlink:href="#a" transform="scale(159.75062 -159.75062) rotate(.055 817.746 1521.88)" fill="#fff"/><use xlink:href="#b" transform="scale(159.75062 -159.75062) rotate(.055 817.326 2393.384)" fill="#fff"/><use xlink:href="#c" transform="scale(159.75062 -159.75062) rotate(.055 816.857 3364.368)" fill="#fff"/><use xlink:href="#d" transform="scale(159.75062 -159.75062) rotate(.055 816.503 4099.084)" fill="#fff"/><use xlink:href="#e" transform="scale(159.75062 -159.75062) rotate(.055 816.108 4916.7)" fill="#fff"/><use xlink:href="#c" transform="scale(159.75062 -159.75062) rotate(.055 815.784 5589.24)" fill="#fff"/><use xlink:href="#f" transform="scale(159.75062 -159.75062) rotate(.055 815.429 6324.99)" fill="#fff"/><use xlink:href="#e" transform="scale(159.75062 -159.75062) rotate(.055 814.987 7240.016)" fill="#fff"/><path d="M165.176 115.333c0 5.215-4.243 9.458-9.458 9.458H42.553c-5.215 0-9.458-4.243-9.458-9.458v-4.693H165.176v4.693zM42.529 23.372a2.358 2.358 0 0 1 2.359-2.359h108.495a2.358 2.358 0 0 1 2.359 2.359v75.475a2.358 2.358 0 0 1-2.359 2.358H44.888a2.358 2.358 0 0 1-2.359-2.358V23.372zm125.005 82.55h-2.358V21.013c0-5.203-4.231-9.434-9.434-9.434H42.529c-5.203 0-9.434 4.231-9.434 9.434v84.91h-2.359a2.358 2.358 0 0 0-2.358 2.358v7.052c0 7.814 6.359 14.175 14.175 14.175h113.165c7.816 0 14.175-6.36 14.175-14.175v-7.052a2.358 2.358 0 0 0-2.359-2.359z" fill="#fff" fill-rule="evenodd"/><path d="M68.474 115.356H44.888a2.358 2.358 0 1 0 0 4.717h23.586a2.358 2.358 0 1 0 0-4.717M153.383 115.356h-23.586a2.358 2.358 0 1 0 0 4.717h23.586a2.358 2.358 0 1 0 0-4.717M101.494 115.356h-4.717a2.358 2.358 0 1 0 0 4.717h4.717a2.358 2.358 0 1 0 0-4.717M111.004 84.152c7.685-3.974 13.138-11.663 13.956-20.684h-9.366c-.269 8.387-1.96 15.623-4.59 20.684M95.631 86.788c.382.052.76.11 1.146.146V63.466h-9.385c.449 12.42 4.362 21.74 8.239 23.322M101.494 86.934c.387-.036.764-.095 1.146-.147 3.878-1.58 7.79-10.901 8.239-23.319h-9.385v23.466zM102.64 35.43c-.382-.053-.76-.112-1.146-.147v23.468h9.384c-.448-12.42-4.36-21.74-8.238-23.322M111.004 38.065c2.63 5.062 4.321 12.298 4.59 20.685h9.366c-.818-9.022-6.271-16.71-13.956-20.685" fill="#fff" fill-rule="evenodd"/><path d="M103.711 91.39c-.722.227-1.458.38-2.217.38-.167 0-.316-.061-.474-.096-.625.04-1.248.096-1.885.096-.636 0-1.26-.056-1.884-.096-.158.035-.307.096-.474.096-.76 0-1.496-.153-2.217-.38C79.82 89.17 68.474 76.457 68.474 61.11c0-15.348 11.347-28.06 26.086-30.282.721-.227 1.457-.38 2.217-.38.167 0 .316.061.474.097.627-.04 1.248-.097 1.884-.097.637 0 1.258.057 1.885.097.158-.036.307-.097.474-.097.76 0 1.495.153 2.217.38 14.739 2.222 26.086 14.934 26.086 30.282 0 15.347-11.347 28.06-26.086 30.282zm-56.465 5.098h103.778V25.73H47.246v70.758z" fill="#fff" fill-rule="evenodd"/><path d="M73.31 58.75h9.366c.27-8.387 1.96-15.623 4.59-20.685C79.582 42.04 74.13 49.73 73.311 58.75M87.392 58.75h9.384V35.285c-.386.033-.764.092-1.146.143-3.877 1.583-7.79 10.904-8.238 23.322M73.31 63.467c.819 9.022 6.272 16.71 13.956 20.685-2.63-5.061-4.32-12.298-4.59-20.685h-9.365z" fill="#fff" fill-rule="evenodd"/><path d="M204.895 133.547V6.453h1.84v127.094z" fill="#fff"/></svg>